<svg viewBox="0 0 16 16" height="16" width="16"><g transform="translate(0 -1036.4)"><path fill="#828282" d="m3.4046 1050.5a1.5674 1.5674 0 0 1 -1.5674 1.5673 1.5674 1.5674 0 0 1 -1.5674 -1.5673 1.5674 1.5674 0 0 1 1.5674 -1.5674 1.5674 1.5674 0 0 1 1.5674 1.5674z"/><path fill="#828282" d="m0.25 1043.1c5.8823-0.8432 9.8419 3.4038 8.9683 9.0982h-3.078c0.71221-2.681-0.4472-6.9843-5.8904-5.9334z"/><path fill="#828282" d="m0.25 1039.9c8.1424-0.7091 12.783 4.9201 12.22 12.277h3.2246c0.82595-10.679-7.7278-16.358-15.445-15.6z"/></g></svg>
