<svg viewBox="0 0 16 16" width="16px" height="16px"><path fill="#828282" d="m 16,1 0,14 c 0,0.542857 -0.457143,1 -1,1 l -4,0 0,-6.228571 2,0 0.342857,-2.314286 -2.342857,0 0,-1.8 C 11,5 11.342857,4.628571 12,4.628571 l 1.485714,0 0,-2.085714 c 0,0 -0.685714,-0.114286 -1.628571,-0.114286 -2.2000001,0 -3.3142859,1.228572 -3.3142859,3.028572 l 0,2 -2,0 0,2.314286 2,0 0,6.228571 L 1,16 C 0.45714286,16 0,15.542857 0,15 L 0,1 C 0,0.457143 0.45714286,0 1,0 l 14,0 c 0.542857,0 1,0.457143 1,1 z"/></svg>
